Coordinates
version=1
nRows=8
nColumns=60
inDegrees=yes

Units are S.I. units (second, meters, Newtons, ...)
If the header above contains a line with 'inDegrees', this indicates whether rotational values are in degrees (yes) or radians (no).

endheader
time	pelvis_tilt	pelvis_list	pelvis_rotation	pelvis_tx	pelvis_ty	pelvis_tz	hip_flexion_r	hip_adduction_r	hip_rotation_r	knee_angle_r_beta	knee_angle_r	ankle_angle_r	subtalar_angle_r	mtp_angle_r	hip_flexion_l	hip_adduction_l	hip_rotation_l	knee_angle_l_beta	knee_angle_l	ankle_angle_l	subtalar_angle_l	mtp_angle_l	L5_S1_Flex_Ext	L5_S1_Lat_Bending	L5_S1_axial_rotation	L4_L5_Flex_Ext	L4_L5_Lat_Bending	L4_L5_axial_rotation	L3_L4_Flex_Ext	L3_L4_Lat_Bending	L3_L4_axial_rotation	L2_L3_Flex_Ext	L2_L3_Lat_Bending	L2_L3_axial_rotation	L1_L2_Flex_Ext	L1_L2_Lat_Bending	L1_L2_axial_rotation	L1_T12_Flex_Ext	L1_T12_Lat_Bending	L1_T12_axial_rotation	Abs_r3	Abs_r2	Abs_r1	Abs_t1	Abs_t2	arm_flex_r	arm_add_r	arm_rot_r	elbow_flex_r	pro_sup_r	wrist_flex_r	wrist_dev_r	arm_flex_l	arm_add_l	arm_rot_l	elbow_flex_l	pro_sup_l	wrist_flex_l	wrist_dev_l
     68.20000000	      0.11291714	      0.47338796	     90.61323821	      0.40377441	      0.93470360	      0.28035378	     10.08640747	     -4.73000176	      2.74024093	      0.26818390	    -15.36580560	      6.67575598	      0.00000000	      0.00000000	      8.68919921	     -5.42615046	     -1.31986655	      0.20355921	    -11.66308382	      6.42040118	      0.00000000	      0.00000000	     -6.33213650	      0.12743662	     -0.13160000	    -11.75941069	      0.16949070	     -0.13982500	    -10.40306705	      0.30984939	     -0.13982500	     -7.23699880	      0.30984939	     -0.11515000	     -5.88002195	      0.25986875	     -0.10692500	     -3.61818279	      0.19739932	     -0.09870000	    -45.22981779	      1.44158850	     -0.73191970	      0.00000000	      0.00000000	     77.72034298	    -15.32914739	     17.01105731	     41.65512030	     66.11014979	     20.48258183	     22.20251649	     79.63532951	    -20.31946508	     28.53981921	     39.07242509	     58.91646954	     28.09166738	     10.54915890
     68.21000000	      0.08300387	      0.27858154	     90.72322589	      0.40382031	      0.93434563	      0.28263715	     10.45774982	     -4.75700302	      2.79121633	      0.26887934	    -15.40565114	      6.57630229	      0.00000000	      0.00000000	      9.03452350	     -5.37941426	     -1.16538145	      0.20209593	    -11.57924364	      6.21635736	      0.00000000	      0.00000000	     -6.37177393	      0.12564531	     -0.15220015	    -11.83302136	      0.16710826	     -0.16171266	    -10.46818738	      0.30549401	     -0.16171266	     -7.28230042	      0.30549401	     -0.13317513	     -5.91682927	      0.25621592	     -0.12366262	     -3.64083162	      0.19462459	     -0.11415011	    -45.51294398	      1.42132489	     -0.84649156	      0.00000000	      0.00000000	     78.27330930	    -15.27634873	     16.85861550	     41.62741155	     66.06417341	     20.54925549	     22.12219567	     80.19357878	    -20.31571271	     28.45430848	     39.03064908	     58.86933872	     28.12149007	     10.53108582
     68.22000000	      0.07778920	      0.08178203	     90.81523408	      0.40392908	      0.93396189	      0.28476500	     10.76856761	     -4.75631392	      2.77390899	      0.26769163	    -15.33760039	      6.57536480	      0.00000000	      0.00000000	      9.35845139	     -5.36844986	     -1.19015872	      0.19994071	    -11.45575893	      6.19416109	      0.00000000	      0.00000000	     -6.40765810	      0.12570023	     -0.16298655	    -11.89966185	      0.16718130	     -0.17317321	    -10.52714149	      0.30562753	     -0.17317321	     -7.32331244	      0.30562753	     -0.14261323	     -5.95015131	      0.25632790	     -0.13242657	     -3.66133584	      0.19470965	     -0.12223991	    -45.76926103	      1.42194610	     -0.90648229	      0.00000000	      0.00000000	     78.77453192	    -15.25885637	     16.76710976	     41.66448108	     66.04323495	     20.55901082	     22.09536338	     80.69241138	    -20.28347913	     28.37398024	     39.05558110	     58.83877787	     28.12716946	     10.51280722
     68.23000000	      0.07011663	     -0.10840654	     90.91165127	      0.40402728	      0.93360424	      0.28696585	     11.11200970	     -4.76102127	      2.78683740	      0.26743366	    -15.32282009	      6.52567866	      0.00000000	      0.00000000	      9.69555675	     -5.35082458	     -1.14191744	      0.19832033	    -11.36291784	      6.08856506	      0.00000000	      0.00000000	     -6.44413462	      0.12523280	     -0.17916401	    -11.96740240	      0.16655963	     -0.19036176	    -10.58706876	      0.30449104	     -0.19036176	     -7.36500146	      0.30449104	     -0.15676851	     -5.98402341	      0.25537473	     -0.14557076	     -3.68217852	      0.19398561	     -0.13437301	    -46.02980917	      1.41665852	     -0.99645646	      0.00000000	      0.00000000	     79.33432819	    -15.20055249	     16.66592119	     41.59439462	     65.99956220	     20.57149279	     22.07386610	     81.23492636	    -20.23685586	     28.30480909	     38.96096645	     58.77260510	     28.13832064	     10.49964850
     68.24000000	      0.01195588	     -0.36782014	     91.06289490	      0.40402501	      0.93311700	      0.28944075	     11.71912614	     -4.83434483	      2.74637697	      0.27349395	    -15.67004921	      6.24673707	      0.00000000	      0.00000000	     10.17713571	     -5.25460204	     -0.66177877	      0.19850771	    -11.37365423	      5.41282846	      0.00000000	      0.00000000	     -6.43878813	      0.11794291	     -0.22995149	    -11.95747343	      0.15686407	     -0.24432345	    -10.57828502	      0.28676640	     -0.24432345	     -7.35889095	      0.28676640	     -0.20120755	     -5.97905866	      0.24050919	     -0.18683558	     -3.67912354	      0.18269357	     -0.17246361	    -45.99161973	      1.33419382	     -1.27892118	      0.00000000	      0.00000000	     80.33712378	    -14.52540140	     16.53553425	     39.77794739	     65.54123814	     20.73867479	     22.08594015	     82.12564498	    -19.80099974	     28.62092333	     37.32583202	     58.00255758	     28.37162718	     10.54982755
     68.25000000	      0.01534196	     -0.48414537	     91.14512211	      0.40419227	      0.93280136	      0.29161449	     11.98453448	     -4.83097503	      2.68071769	      0.27342556	    -15.66613088	      6.27857275	      0.00000000	      0.00000000	     10.45330404	     -5.26389339	     -0.67395303	      0.19747234	    -11.31433161	      5.41374590	      0.00000000	      0.00000000	     -6.45986922	      0.11491232	     -0.25330051	    -11.99662313	      0.15283338	     -0.26913179	    -10.61291914	      0.27939781	     -0.26913179	     -7.38298453	      0.27939781	     -0.22163794	     -5.99863456	      0.23432920	     -0.20580666	     -3.69116927	      0.17799918	     -0.18997538	    -46.14219986	      1.29991114	     -1.40878142	      0.00000000	      0.00000000	     81.32297506	    -14.10797370	     16.73372294	     38.34926152	     64.65994459	     21.28785825	     21.95902965	     82.99631500	    -19.50868132	     29.31901913	     36.09216810	     56.16323320	     29.09694384	     10.47819862
     68.26000000	      0.03648823	     -0.61369563	     91.20117980	      0.40431352	      0.93259798	      0.29371097	     12.25674302	     -4.80604161	      2.71634122	      0.27307527	    -15.64606057	      6.21498068	      0.00000000	      0.00000000	     10.73134116	     -5.27849778	     -0.65568446	      0.19652385	    -11.25998733	      5.33294220	      0.00000000	      0.00000000	     -6.49417339	      0.11439235	     -0.26951894	    -12.06032941	      0.15214182	     -0.28636387	    -10.66927747	      0.27813355	     -0.28636387	     -7.42219077	      0.27813355	     -0.23582907	     -6.03048941	      0.23326887	     -0.21898414	     -3.71077068	      0.17719374	     -0.20213920	    -46.38723114	      1.29402909	     -1.49898348	      0.00000000	      0.00000000	     81.85285715	    -14.02265934	     16.71746455	     38.34410961	     64.60749498	     21.31382599	     21.94150115	     83.51347286	    -19.44293094	     29.28407300	     36.01567312	     56.03954462	     29.11962742	     10.46551779
     68.27000000	      0.07005357	     -0.62406954	     91.28607220	      0.40445980	      0.93249337	      0.29595201	     12.48954147	     -4.76567340	      2.74615686	      0.27581378	    -15.80296544	      5.99608409	      0.00000000	      0.00000000	     10.94408348	     -5.31458714	     -0.47937543	      0.19766385	    -11.32530408	      5.04712578	      0.00000000	      0.00000000	     -6.51009914	      0.11409027	     -0.29837891	    -12.08990511	      0.15174006	     -0.31702759	    -10.69544188	      0.27739908	     -0.31702759	     -7.44039231	      0.27739908	     -0.26108155	     -6.04527806	      0.23265288	     -0.24243287	     -3.71987065	      0.17672583	     -0.22378418	    -46.50098715	      1.29061193	     -1.65949399	      0.00000000	      0.00000000	     83.04479183	    -13.50068712	     17.46223123	     36.30547818	     63.64568611	     21.77475592	     21.90123958	     84.59946712	    -18.91832190	     30.18225057	     34.01528654	     53.71026752	     29.67847640	     10.62006599
